<?xml version="1.0" encoding="utf-8"?>
<!-- Generator: Adobe Illustrator 25.4.1, SVG Export Plug-In . SVG Version: 6.00 Build 0)  -->
<svg version="1.1" id="Capa_1" xmlns="http://www.w3.org/2000/svg" xmlns:xlink="http://www.w3.org/1999/xlink" x="0px" y="0px"
	 viewBox="0 0 1080 1080" style="enable-background:new 0 0 1080 1080;" xml:space="preserve">
<style type="text/css">
	.st0{fill:#0703EE;}
</style>
<g>
	<g>
		<path class="st0" d="M664.36,615.3c-0.41,1.42-1.13,2.69-1.96,3.9c-3.25-0.52-5.95-1.63-8.1-3.24c-0.12-0.11-0.24-0.21-0.35-0.32
			c-2.5-2.33-4.27-5.01-5.26-8.04c-0.52-1.82-0.77-3.8-0.77-5.92c0-2.83,0.45-5.45,1.34-7.75c0.48,0.79,1.03,1.56,1.62,2.3
			c1.79,2.24,3.93,4.14,6.04,6.06c2.04,1.87,4.16,3.65,5.83,5.87C664.35,610.31,665.12,612.64,664.36,615.3z"/>
		<path class="st0" d="M681.95,613.22c-0.83,1.02-1.7,1.93-2.62,2.74c-3.07,2.28-7.27,3.58-12.58,3.58c-0.41,0-0.81-0.01-1.21-0.03
			c0.45-0.79,0.84-1.55,1.16-2.36c1.52-3.97,0.61-7.52-1.86-10.8c-1.76-2.33-3.95-4.24-6.1-6.19c-2.16-1.97-4.35-3.91-6.11-6.27
			c-0.58-0.77-1.08-1.58-1.54-2.42c-0.18-0.32-0.17-0.56,0.04-0.87c0.71-1,1.48-1.91,2.32-2.74c3.12-2.75,7.56-4.34,13.3-4.34
			c4.43,0,8.07,0.92,10.93,2.56c0.02,0.06,0.04,0.12,0.06,0.19c0.6,2.39,0.48,4.8,0.25,7.22c-0.29,3.09-0.8,6.17-0.53,9.28
			c0.32,3.61,1.74,6.69,4.41,9.15C682.4,612.42,682.37,612.7,681.95,613.22z"/>
		<path class="st0" d="M685.71,601.68c0,2.09-0.25,4.04-0.75,5.84c-0.28,0.83-0.62,1.66-1.02,2.48c-2.45-2.07-3.75-5.17-3.75-8.71
			c-0.01-2.77,0.43-5.5,0.66-8.26c0.12-1.49,0.18-2.99,0.07-4.47c0.27,0.27,0.52,0.55,0.76,0.84c0.1,0.24,0.26,0.45,0.42,0.66
			c0.92,1.25,1.68,2.56,2.27,3.92c0.02,0.06,0.05,0.12,0.07,0.19C685.3,596.42,685.71,598.95,685.71,601.68z"/>
	</g>
	<path class="st0" d="M294.15,546.25c0,23.98-19.15,32.03-38.62,32.03c-14.48,0-23.34-4.51-29.77-10.94l4.51-28h1.61
		c4.51,6.12,11.27,10.62,18.83,10.62c6.12,0,9.5-2.9,9.5-8.21c0-6.76-5.47-11.43-17.06-11.43c-3.06,0-6.6,0.48-10.62,1.13v-25.27
		c3.06,0.32,5.95,0.48,8.53,0.48c9.33,0,15.61-2.09,15.61-7.72c0-4.18-3.7-9.01-17.38-9.01c-14.64,0-19.63,3.06-19.63,12.23v76.12
		h-32.51v-78.21c0-26.55,15.29-38.3,50.21-38.3c31.22,0,49.25,10.94,49.25,29.93c0,18.83-17.54,24.94-33.31,26.07l0.16,0.32
		c2.41-0.16,5.79-0.48,8.21-0.48C287.55,518.08,294.15,532.24,294.15,546.25z"/>
	<path class="st0" d="M342.92,495.87c13.68,0,24.94,3.54,27.84,17.86l0.32-0.16c-0.48-2.41-0.32-5.63-0.32-8.21v-7.89h30.9v78.86
		h-30.9v-8.05c0-2.41-0.16-5.63,0.32-8.05h-0.32c-2.9,14.32-14.32,17.7-27.84,17.7c-28.16,0-41.52-16.58-41.52-41.04
		C301.4,512.45,314.76,495.87,342.92,495.87z M351.45,550.91c11.27,0,17.7-4.67,17.7-14c0-9.5-6.44-14-17.7-14s-17.7,5.15-17.7,14
		C333.75,545.6,340.19,550.91,351.45,550.91z"/>
	<path class="st0" d="M484.23,499.41l-4.67,27.04c-7.89-3.38-19.79-4.35-26.72-4.35c-5.79,0-8.37,0.64-8.37,2.41
		c0,5.63,43.13-1.29,43.13,26.55c0,19.31-13.52,26.88-43.13,26.88c-11.1,0-26.07-0.8-32.19-2.57v-28c7.4,2.57,19.96,4.51,31.54,4.51
		c7.56,0,10.94-0.8,10.94-2.74c0-5.63-42.49,1.77-42.49-26.55c0-18.35,14-26.72,40.07-26.72
		C463.63,495.87,478.27,497.48,484.23,499.41z"/>
	<path class="st0" d="M583.37,527.58c0,6.44-1.93,11.91-4.99,15.61h-48.76c-1.93,0-4.18-0.32-5.95-1.13l-0.16,0.32
		c1.77,0.8,3.54,2.57,4.99,3.7c4.02,3.22,10.78,4.83,19.96,4.83c8.69,0,21.73-1.45,30.9-4.02l0.8,28
		c-10.78,2.25-24.78,3.06-33.64,3.06c-35.24,0-53.27-13.04-53.27-40.39c0-27.52,16.42-41.68,45.38-41.68
		C565.18,495.87,583.37,507.78,583.37,527.58z M525.43,529.35h23.5c1.93,0,4.02,0.48,5.47,1.61l0.32-0.32
		c-1.45-1.13-2.09-3.38-2.74-5.15c-1.45-3.54-5.15-5.79-13.2-5.79C528.17,519.69,525.75,523.71,525.43,529.35z"/>
	<path class="st0" d="M624.41,460.47v76.77c0,8.37,2.41,12.07,9.01,12.07c1.93,0,4.02-0.32,6.76-1.13v27.36
		c-3.86,1.45-12.87,2.41-19.79,2.41c-17.54,0-26.88-7.72-26.88-30.9v-86.58H624.41z"/>
	<rect x="651.45" y="497.48" class="st0" width="30.9" height="78.86"/>
	<path class="st0" d="M758.8,495.87c22.21,0,33.8,10.78,33.8,32.19v48.28h-30.9v-37.01c0-12.55-4.18-17.38-16.9-17.38
		c-12.55,0-16.9,5.63-16.9,18.99v35.41H697v-78.86h30.9v9.5c0,2.41,0.32,5.79-0.16,8.21l0.32,0.16
		C731.12,500.38,744.8,495.87,758.8,495.87z"/>
	<path class="st0" d="M892.86,527.58c0,6.44-1.93,11.91-4.99,15.61h-48.76c-1.93,0-4.18-0.32-5.95-1.13l-0.16,0.32
		c1.77,0.8,3.54,2.57,4.99,3.7c4.02,3.22,10.78,4.83,19.96,4.83c8.69,0,21.73-1.45,30.9-4.02l0.8,28
		c-10.78,2.25-24.78,3.06-33.64,3.06c-35.24,0-53.27-13.04-53.27-40.39c0-27.52,16.42-41.68,45.38-41.68
		C874.68,495.87,892.86,507.78,892.86,527.58z M834.93,529.35h23.5c1.93,0,4.02,0.48,5.47,1.61l0.32-0.32
		c-1.45-1.13-2.09-3.38-2.74-5.15c-1.45-3.54-5.15-5.79-13.2-5.79C837.66,519.69,835.25,523.71,834.93,529.35z"/>
	<path class="st0" d="M635.99,601.68c0,3.12,0.38,6.06,1.11,8.78H187.13v-17.87h450.03C636.39,595.41,635.99,598.45,635.99,601.68z"
		/>
	<path class="st0" d="M892.87,592.59v17.87H696.53c0.73-2.72,1.11-5.66,1.11-8.78c0-3.24-0.4-6.27-1.17-9.09H892.87z"/>
</g>
</svg>
